<svg width="16" height="16" viewBox="0 0 16 16" fill="none" xmlns="http://www.w3.org/2000/svg">
<path d="M13.4721 3.47157C13.7324 3.21122 13.7324 2.78911 13.4721 2.52876C13.2117 2.26841 12.7896 2.26841 12.5292 2.52876L10.6673 4.39069V4.00016C10.6673 3.63197 10.3688 3.3335 10.0007 3.3335C9.63246 3.3335 9.33398 3.63197 9.33398 4.00016V5.66683C9.33398 6.21911 9.7817 6.66683 10.334 6.66683H12.0007C12.3688 6.66683 12.6673 6.36835 12.6673 6.00016C12.6673 5.63197 12.3688 5.3335 12.0007 5.3335H11.6101L13.4721 3.47157Z" fill="#B7925D"/>
<path d="M1.66056 5.80576C0.925007 4.32963 1.66717 2.70053 3.08138 1.852C3.76227 1.44346 4.64225 1.62076 5.11182 2.26108L6.1536 3.68168C6.597 4.28633 6.66496 5.08819 6.32964 5.75884L6.05649 6.30514C5.97742 6.46329 5.96491 6.64622 6.0458 6.80345C6.19317 7.08989 6.50698 7.59752 7.11151 8.20205C7.71604 8.80658 8.22366 9.12039 8.51011 9.26775C8.66733 9.34864 8.85027 9.33613 9.00841 9.25706L9.55471 8.98391C10.2254 8.64859 11.0272 8.71655 11.6319 9.15996L13.0525 10.2017C13.6928 10.6713 13.8701 11.5513 13.4616 12.2322C12.613 13.6464 10.9839 14.3885 9.50779 13.653C8.2637 13.0331 6.67393 12.0071 4.99019 10.3234C3.30645 8.63962 2.28048 7.04985 1.66056 5.80576Z" fill="#B7925D"/>
</svg>
