<svg width="16" height="16" viewBox="0 0 16 16" fill="none" xmlns="http://www.w3.org/2000/svg">
<path d="M1.71212 3.49463C1.57008 3.69075 1.65539 3.95505 1.86128 4.08251L7.6487 7.6652C7.86371 7.7983 8.1355 7.7983 8.35051 7.6652L14.138 4.08245C14.3439 3.95499 14.4292 3.69067 14.2872 3.49455C13.9238 2.99285 13.3332 2.6665 12.6663 2.6665H3.33301C2.66614 2.6665 2.0755 2.99289 1.71212 3.49463Z" fill="#B7925D"/>
<path d="M14.6663 6.19509C14.6663 5.81469 14.2487 5.58206 13.9253 5.78228L9.05231 8.79889C8.4073 9.19818 7.59191 9.19818 6.94689 8.79889L2.07406 5.78237C1.75062 5.58214 1.33301 5.81478 1.33301 6.19517V11.3332C1.33301 12.4377 2.22844 13.3332 3.33301 13.3332H12.6663C13.7709 13.3332 14.6663 12.4377 14.6663 11.3332V6.19509Z" fill="#B7925D"/>
</svg>
