<svg width="16" height="16" viewBox="0 0 16 16" fill="none" xmlns="http://www.w3.org/2000/svg">
<path fill-rule="evenodd" clip-rule="evenodd" d="M13.3566 6.68953C13.3566 7.95628 12.9169 9.12032 12.1818 10.0374H12.1849C12.1849 10.0374 10.3232 12.5286 8.88106 14.2925C8.42097 14.8553 7.57936 14.8551 7.11953 14.2921C5.68196 12.532 3.82273 10.0428 3.82273 10.0428L3.81839 10.0374C3.08327 9.12032 2.64355 7.95628 2.64355 6.68953C2.64355 3.7312 5.04175 1.33301 8.00008 1.33301C10.9584 1.33301 13.3566 3.7312 13.3566 6.68953ZM10.0002 6.66634C10.0002 7.77091 9.10473 8.66634 8.00016 8.66634C6.89559 8.66634 6.00016 7.77091 6.00016 6.66634C6.00016 5.56177 6.89559 4.66634 8.00016 4.66634C9.10473 4.66634 10.0002 5.56177 10.0002 6.66634Z" fill="#B7925D"/>
</svg>
